<svg width="60" height="42" viewBox="0 0 60 42" fill="none" xmlns="http://www.w3.org/2000/svg">
<path d="M12.3067 26.4335C8.2469 24.9668 5.33353 23.0467 3.92029 20.9265C6.83331 16.5863 15.7536 13.3 26.667 12.7331V17.1798C26.667 17.2933 26.8605 17.3463 26.9805 17.2663L39.2068 8.73985C39.2375 8.72032 39.2561 8.68637 39.2561 8.64963C39.2561 8.61336 39.2375 8.57941 39.2068 8.55988L26.9805 0.0329701C26.8605 -0.0470168 26.667 0.0329703 26.667 0.119467V4.7331C11.6871 5.46647 0 11.073 0 17.8595V23.9929C0 26.2995 1.33323 28.5061 3.75327 30.4332C5.73389 31.9311 7.92976 33.1202 10.2666 33.9601C11.5998 34.467 13.28 33.8736 13.28 32.8868V27.5532C13.2293 27.0101 12.8378 26.5595 12.3067 26.4335Z" fill="#2A2C35" fill-opacity="0.8"/>
<path d="M56.2466 11.419C54.266 9.92114 52.0702 8.73208 49.7333 7.89219C48.4001 7.3853 46.72 7.97868 46.72 8.96549V14.299C46.7841 14.8296 47.1729 15.2635 47.6933 15.3858C51.7531 16.8856 54.6665 18.8057 56.0797 20.9258C53.1667 25.2659 44.2464 28.5523 33.333 29.1192V24.6725C33.333 24.559 33.1395 24.506 33.0195 24.586L20.7932 33.1124C20.7625 33.132 20.7439 33.1659 20.7439 33.2026C20.7439 33.2389 20.7625 33.2729 20.7932 33.2924L33.0195 41.8193C33.1395 41.8993 33.333 41.8193 33.333 41.7328V37.1192C48.3129 36.3858 60 30.7788 60 23.9916V17.8582C60 15.5516 58.6668 13.345 56.2467 11.4183L56.2466 11.419Z" fill="#2A2C35" fill-opacity="0.8"/>
</svg>
